<svg width="640" height="480" xmlns="http://www.w3.org/2000/svg" xmlns:svg="http://www.w3.org/2000/svg">
 <!-- Created with SVG-edit - http://svg-edit.googlecode.com/ -->
 <g>
  <title>Layer 1</title>
  <path id="svg_6" d="m128,275c0,0 -129,-130 -129,-130c0,0 -1,266 -1,266c0,0 205,1 205,1c0,0 -180,-134 -180,-134c0,0 105,-3 105,-3z" stroke-linecap="null" stroke-linejoin="null" stroke-dasharray="null" stroke-width="0" stroke="#000000" fill="#000000"/>
  <path id="svg_7" d="m-1,127c0,0 140,146 140,146c0,0 85,1 85,1c0,0 -225,-147 -225,-147z" stroke-linecap="null" stroke-linejoin="null" stroke-dasharray="null" stroke-width="0" stroke="#000000" fill="#000000"/>
  <path id="svg_8" d="m-1,111c0,0 188,129 188,129c0,0 66,3 66,3c0,0 27,-27 27,-27c0,0 -203,-215 -203,-215c0,0 -42,1 -42,1c0,0 -36,24 -36,24c0,0 0,85 0,85z" stroke-linecap="null" stroke-linejoin="null" stroke-dasharray="null" stroke-width="0" stroke="#000000" fill="#000000"/>
  <path id="svg_9" d="m186,77c0,0 120,122 120,122c0,0 73,-56 73,-56c0,0 -120,-122 -120,-122c0,0 -73,56 -73,56z" stroke-linecap="null" stroke-linejoin="null" stroke-dasharray="null" stroke-width="0" stroke="#000000" fill="#000000"/>
  <path id="svg_10" d="m303,46c0,0 92,85 92,85c0,0 16,-14 16,-14c0,0 0,-115 0,-115c0,0 -60.008333,0 -61,-1c-0.991667,-1 -47,45 -47,45z" stroke-linecap="null" stroke-linejoin="null" stroke-dasharray="null" stroke-width="0" stroke="#000000" fill="#000000"/>
  <path id="svg_11" d="m252,251c0,0 159,-126 159,-126c0,0 0,129 0,129c0,0 -159,-3 -159,-3z" stroke-linecap="null" stroke-linejoin="null" stroke-dasharray="null" stroke-width="0" stroke="#000000" fill="#000000"/>
  <path id="svg_15" d="m108,24c0,0 65,48 65,48c0,0 126,134 126,134c0,0 -9,10 -9,10c0,0 -182,-192 -182,-192z" stroke-linecap="null" stroke-linejoin="null" stroke-dasharray="null" stroke-width="0" stroke="#000000" fill="#000000"/>
  <path id="svg_21" d="m280,35c0,0 15,12 15,12c0,0 93,83 93,83c0,0 -9,7 -9,7c0,0 -99,-102 -99,-102z" stroke-linecap="null" stroke-linejoin="null" stroke-dasharray="null" stroke-width="0" stroke="#000000" fill="#000000"/>
  <rect id="svg_25" height="134" width="54" y="258" x="267" stroke-linecap="null" stroke-linejoin="null" stroke-dasharray="null" stroke-width="0" stroke="#000000" fill="#000000"/>
  <rect id="svg_26" height="75" width="94" y="317" x="319" stroke-linecap="null" stroke-linejoin="null" stroke-dasharray="null" stroke-width="0" stroke="#000000" fill="#000000"/>
  <rect id="svg_27" height="13" width="93" y="258" x="320" stroke-linecap="null" stroke-linejoin="null" stroke-dasharray="null" stroke-width="0" stroke="#000000" fill="#000000"/>
  <rect id="svg_28" height="56" width="44" y="269" x="369" stroke-linecap="null" stroke-linejoin="null" stroke-dasharray="null" stroke-width="0" stroke="#000000" fill="#000000"/>
  <path id="svg_31" d="m188,393c0,0 20,-12 20,-12c0,0 17,-22 17,-22c0,0 36,-10 36,-10c0,0 2,48 2,48c0,0 152,-1 152,-1c0,0 -3,18 -2,19c1,1 -199,-1 -200,-1c-1,0 -25,-21 -25,-21z" stroke-linecap="null" stroke-linejoin="null" stroke-dasharray="null" stroke-width="0" stroke="#000000" fill="#000000"/>
 </g>
</svg>
