<svg width="410" height="410" xmlns="http://www.w3.org/2000/svg" xmlns:svg="http://www.w3.org/2000/svg">
 <!-- Created with SVG-edit - http://svg-edit.googlecode.com/ -->
 <g>
  <title>Layer 1</title>
  <path fill="#000000" stroke="#000000" stroke-width="0" stroke-dasharray="null" stroke-linejoin="null" stroke-linecap="null" d="m128,273c0,0 -129,-130 -129,-130c0,0 -1,266 -1,266c0,0 205,1 205,1c0,0 -180,-134 -180,-134c0,0 105,-3 105,-3z" id="svg_6"/>
  <path fill="#000000" stroke="#000000" stroke-width="0" stroke-dasharray="null" stroke-linejoin="null" stroke-linecap="null" d="m-1,127c0,0 140,146 140,146c0,0 85,1 85,1c0,0 -225,-147 -225,-147z" id="svg_7"/>
  <path fill="#000000" stroke="#000000" stroke-width="0" stroke-dasharray="null" stroke-linejoin="null" stroke-linecap="null" d="m-1,111c0,0 188,129 188,129c0,0 66,3 66,3c0,0 27,-27 27,-27c0,0 -203,-215 -203,-215c0,0 -42,1 -42,1c0,0 -36,24 -36,24c0,0 0,85 0,85z" id="svg_8"/>
  <path fill="#000000" stroke="#000000" stroke-width="0" stroke-dasharray="null" stroke-linejoin="null" stroke-linecap="null" d="m186,77c0,0 120,122 120,122c0,0 73,-56 73,-56c0,0 -120,-122 -120,-122c0,0 -73,56 -73,56z" id="svg_9"/>
  <path fill="#000000" stroke="#000000" stroke-width="0" stroke-dasharray="null" stroke-linejoin="null" stroke-linecap="null" d="m301,45c0,0 92,85 92,85c0,0 16,-14 16,-14c0,0 0,-115 0,-115c0,0 -60.00833,0 -61,-1c-0.99167,-1 -47,45 -47,45z" id="svg_10"/>
  <path fill="#000000" stroke="#000000" stroke-width="0" stroke-dasharray="null" stroke-linejoin="null" stroke-linecap="null" d="m108,24c0,0 65,48 65,48c0,0 126,134 126,134c0,0 -9,10 -9,10c0,0 -182,-192 -182,-192z" id="svg_15"/>
  <path fill="#000000" stroke="#000000" stroke-width="0" stroke-dasharray="null" stroke-linejoin="null" stroke-linecap="null" d="m280,35c0,0 15,12 15,12c0,0 93,83 93,83c0,0 -9,7 -9,7c0,0 -99,-102 -99,-102z" id="svg_21"/>
  <g id="svg_1">
   <rect fill="#000000" stroke="#000000" stroke-width="0" stroke-dasharray="null" stroke-linejoin="null" stroke-linecap="null" x="263" y="275" width="54" height="134" id="svg_25"/>
   <rect fill="#000000" stroke="#000000" stroke-width="0" stroke-dasharray="null" stroke-linejoin="null" stroke-linecap="null" x="315" y="334" width="94" height="75" id="svg_26"/>
   <rect fill="#000000" stroke="#000000" stroke-width="0" stroke-dasharray="null" stroke-linejoin="null" stroke-linecap="null" x="316" y="275" width="93" height="13" id="svg_27"/>
   <rect fill="#000000" stroke="#000000" stroke-width="0" stroke-dasharray="null" stroke-linejoin="null" stroke-linecap="null" x="365" y="286" width="44" height="56" id="svg_28"/>
  </g>
  <path stroke="#000000" id="svg_2" d="m408.46997,270.80803l0,-142.00002l-171.00002,142.00002l171.00002,0z" stroke-linecap="null" stroke-linejoin="null" stroke-dasharray="null" stroke-width="0" fill="#000000"/>
 </g>
</svg>
